<?xml version="1.0" encoding="UTF-8"?><svg xmlns="http://www.w3.org/2000/svg" xmlns:xlink="http://www.w3.org/1999/xlink" width="384" zoomAndPan="magnify" viewBox="0 0 384 383.999986" height="383.999986" preserveAspectRatio="xMidYMid meet" version="1.0"><defs><clipPath id="clip-0"><path d="M 1.140625 1.140625 L 383.640625 1.140625 L 383.640625 383.640625 L 1.140625 383.640625 Z M 1.140625 1.140625 " clip-rule="nonzero"/></clipPath><clipPath id="clip-1"><path d="M 3.394531 2.253906 L 381.394531 2.253906 L 381.394531 380.253906 L 3.394531 380.253906 Z M 3.394531 2.253906 " clip-rule="nonzero"/></clipPath></defs><g clip-path="url(#clip-0)"><path fill="rgb(100%, 0%, 0%)" d="M 280.097656 1.214844 L 104.6875 1.214844 C 47.609375 1.214844 1.140625 47.609375 1.140625 104.761719 L 1.140625 280.023438 C 1.140625 337.097656 47.609375 383.566406 104.6875 383.566406 L 280.097656 383.566406 C 337.175781 383.566406 383.640625 337.097656 383.640625 280.023438 L 383.640625 104.761719 C 383.640625 47.609375 337.175781 1.214844 280.097656 1.214844 Z M 280.097656 1.214844 " fill-opacity="1" fill-rule="nonzero"/></g><g clip-path="url(#clip-1)"><path fill="rgb(100%, 0%, 0%)" d="M 381.394531 191.253906 C 381.394531 86.886719 296.761719 2.253906 192.394531 2.253906 C 88.03125 2.253906 3.394531 86.886719 3.394531 191.253906 C 3.394531 295.617188 88.03125 380.253906 192.394531 380.253906 C 296.761719 380.253906 381.394531 295.617188 381.394531 191.253906 Z M 381.394531 191.253906 " fill-opacity="1" fill-rule="nonzero"/></g><path fill="rgb(100%, 100%, 100%)" d="M 59.3125 193.539062 C 59.3125 196.054688 57.253906 198.109375 54.742188 198.109375 L 46.664062 198.109375 C 44.152344 198.109375 42.09375 196.054688 42.09375 193.539062 L 42.09375 188.585938 C 42.09375 186.074219 44.152344 184.015625 46.664062 184.015625 L 54.816406 184.015625 C 57.332031 184.015625 59.386719 186.074219 59.386719 188.585938 L 59.386719 193.539062 Z M 59.3125 193.539062 " fill-opacity="1" fill-rule="nonzero"/><path fill="rgb(100%, 100%, 100%)" d="M 82.925781 205.5 C 82.925781 208.011719 80.871094 210.070312 78.355469 210.070312 L 70.28125 210.070312 C 67.765625 210.070312 65.710938 208.011719 65.710938 205.5 L 65.710938 176.933594 C 65.710938 174.417969 67.765625 172.359375 70.28125 172.359375 L 78.433594 172.359375 C 80.945312 172.359375 83.003906 174.417969 83.003906 176.933594 L 83.003906 205.5 Z M 82.925781 205.5 " fill-opacity="1" fill-rule="nonzero"/><path fill="rgb(100%, 100%, 100%)" d="M 106.542969 211.441406 C 106.542969 213.953125 104.484375 216.011719 101.972656 216.011719 L 93.820312 216.011719 C 91.304688 216.011719 89.25 213.953125 89.25 211.441406 L 89.25 171.066406 C 89.25 168.550781 91.304688 166.496094 93.820312 166.496094 L 101.972656 166.496094 C 104.484375 166.496094 106.542969 168.550781 106.542969 171.066406 Z M 106.542969 211.441406 " fill-opacity="1" fill-rule="nonzero"/><path fill="rgb(100%, 100%, 100%)" d="M 130.15625 223.25 C 130.15625 225.761719 128.101562 227.820312 125.585938 227.820312 L 117.433594 227.820312 C 114.921875 227.820312 112.863281 225.761719 112.863281 223.25 L 112.863281 159.257812 C 112.863281 156.746094 114.921875 154.6875 117.433594 154.6875 L 125.585938 154.6875 C 128.101562 154.6875 130.15625 156.746094 130.15625 159.257812 Z M 130.15625 223.25 " fill-opacity="1" fill-rule="nonzero"/><path fill="rgb(100%, 100%, 100%)" d="M 153.773438 246.863281 C 153.773438 249.378906 151.714844 251.433594 149.203125 251.433594 L 141.050781 251.433594 C 138.539062 251.433594 136.480469 249.378906 136.480469 246.863281 L 136.480469 135.644531 C 136.480469 133.128906 138.539062 131.074219 141.050781 131.074219 L 149.203125 131.074219 C 151.714844 131.074219 153.773438 133.128906 153.773438 135.644531 Z M 153.773438 246.863281 " fill-opacity="1" fill-rule="nonzero"/><path fill="rgb(100%, 100%, 100%)" d="M 177.386719 258.671875 C 177.386719 261.1875 175.332031 263.242188 172.816406 263.242188 L 164.667969 263.242188 C 162.152344 263.242188 160.097656 261.1875 160.097656 258.671875 L 160.097656 123.835938 C 160.097656 121.320312 162.152344 119.265625 164.667969 119.265625 L 172.816406 119.265625 C 175.332031 119.265625 177.386719 121.320312 177.386719 123.835938 Z M 177.386719 258.671875 " fill-opacity="1" fill-rule="nonzero"/><path fill="rgb(100%, 100%, 100%)" d="M 201.003906 294.09375 C 201.003906 296.609375 198.945312 298.664062 196.433594 298.664062 L 188.28125 298.664062 C 185.769531 298.664062 183.710938 296.609375 183.710938 294.09375 L 183.710938 88.410156 C 183.710938 85.898438 185.769531 83.839844 188.28125 83.839844 L 196.433594 83.839844 C 198.945312 83.839844 201.003906 85.898438 201.003906 88.410156 Z M 201.003906 294.09375 " fill-opacity="1" fill-rule="nonzero"/><path fill="rgb(100%, 100%, 100%)" d="M 224.621094 246.863281 C 224.621094 249.378906 222.5625 251.433594 220.046875 251.433594 L 211.898438 251.433594 C 209.382812 251.433594 207.328125 249.378906 207.328125 246.863281 L 207.328125 135.644531 C 207.328125 133.128906 209.382812 131.074219 211.898438 131.074219 L 220.046875 131.074219 C 222.5625 131.074219 224.621094 133.128906 224.621094 135.644531 Z M 224.621094 246.863281 " fill-opacity="1" fill-rule="nonzero"/><path fill="rgb(100%, 100%, 100%)" d="M 248.234375 223.25 C 248.234375 225.761719 246.179688 227.820312 243.664062 227.820312 L 235.511719 227.820312 C 233 227.820312 230.941406 225.761719 230.941406 223.25 L 230.941406 159.257812 C 230.941406 156.746094 233 154.6875 235.511719 154.6875 L 243.664062 154.6875 C 246.179688 154.6875 248.234375 156.746094 248.234375 159.257812 Z M 248.234375 223.25 " fill-opacity="1" fill-rule="nonzero"/><path fill="rgb(100%, 100%, 100%)" d="M 271.851562 235.054688 C 271.851562 237.570312 269.792969 239.628906 267.28125 239.628906 L 259.128906 239.628906 C 256.613281 239.628906 254.558594 237.570312 254.558594 235.054688 L 254.558594 147.449219 C 254.558594 144.9375 256.613281 142.878906 259.128906 142.878906 L 267.28125 142.878906 C 269.792969 142.878906 271.851562 144.9375 271.851562 147.449219 Z M 271.851562 235.054688 " fill-opacity="1" fill-rule="nonzero"/><path fill="rgb(100%, 100%, 100%)" d="M 295.464844 211.441406 C 295.464844 213.953125 293.410156 216.011719 290.894531 216.011719 L 282.742188 216.011719 C 280.230469 216.011719 278.171875 213.953125 278.171875 211.441406 L 278.171875 171.066406 C 278.171875 168.550781 280.230469 166.496094 282.742188 166.496094 L 290.894531 166.496094 C 293.410156 166.496094 295.464844 168.550781 295.464844 171.066406 Z M 295.464844 211.441406 " fill-opacity="1" fill-rule="nonzero"/><path fill="rgb(100%, 100%, 100%)" d="M 342.695312 193.691406 C 342.695312 196.207031 340.640625 198.261719 338.125 198.261719 L 329.976562 198.261719 C 327.460938 198.261719 325.402344 196.207031 325.402344 193.691406 L 325.402344 188.738281 C 325.402344 186.226562 327.460938 184.167969 329.976562 184.167969 L 338.125 184.167969 C 340.640625 184.167969 342.695312 186.226562 342.695312 188.738281 Z M 342.695312 193.691406 " fill-opacity="1" fill-rule="nonzero"/><path fill="rgb(100%, 100%, 100%)" d="M 319.082031 199.632812 C 319.082031 202.148438 317.023438 204.203125 314.511719 204.203125 L 306.359375 204.203125 C 303.84375 204.203125 301.789062 202.148438 301.789062 199.632812 L 301.789062 182.875 C 301.789062 180.359375 303.84375 178.304688 306.359375 178.304688 L 314.511719 178.304688 C 317.023438 178.304688 319.082031 180.359375 319.082031 182.875 Z M 319.082031 199.632812 " fill-opacity="1" fill-rule="nonzero"/></svg>